<?xml version="1.0" encoding="utf-8"?>
<!-- Generator: Adobe Illustrator 18.1.0, SVG Export Plug-In . SVG Version: 6.00 Build 0)  -->
<svg version="1.1" id="Layer_1" xmlns="http://www.w3.org/2000/svg" xmlns:xlink="http://www.w3.org/1999/xlink" x="0px" y="0px"
	 viewBox="0 0 20 20" enable-background="new 0 0 20 20" xml:space="preserve">
<path fill="#222D47" d="M20,3.5c0,4.3,0,8.7,0,13c0,0.1,0,0.1,0,0.2c-0.2,1.5-1,2.5-2.4,3c-0.3,0.1-0.7,0.2-1,0.2c-4.3,0-8.7,0-13,0
	c-0.1,0-0.1,0-0.2,0c-1.5-0.2-2.5-1-3.1-2.4c-0.1-0.3-0.2-0.7-0.2-1c0-4.3,0-8.7,0-13c0-0.1,0-0.1,0-0.2c0.2-1.5,1-2.5,2.4-3
	c0.3-0.1,0.7-0.2,1-0.2c4.3,0,8.7,0,13,0c0.1,0,0.1,0,0.2,0c1.5,0.2,2.5,1,3.1,2.4C19.9,2.8,19.9,3.2,20,3.5z M10,18.5
	c2,0,4.1,0,6.1,0c0.2,0,0.4,0,0.6-0.1c1.1-0.2,1.8-1.1,1.8-2.3c0-4.1,0-8.2,0-12.3c0-1.4-1-2.3-2.3-2.3c-4.1,0-8.2,0-12.3,0
	c-1.3,0-2.3,1-2.3,2.3c0,4.1,0,8.2,0,12.3c0,0.3,0.1,0.7,0.2,1c0.4,0.9,1.1,1.3,2.1,1.3C5.9,18.5,8,18.5,10,18.5z"/>
<path fill="#222D47" d="M8.2,12.8c0.1-0.1,0.1-0.2,0.2-0.2c1.9-2.8,3.9-5.7,5.8-8.5c0.4-0.5,0.7-0.6,1.3-0.2c0.3,0.2,0.7,0.5,1,0.7
	c0.4,0.3,0.5,0.7,0.2,1.1c-2.4,3.5-4.8,7-7.1,10.5c-0.5,0.7-1.1,0.8-1.8,0.2c-0.1-0.1-0.1-0.1-0.2-0.2c-1.3-1.3-2.7-2.7-4-4
	c-0.4-0.4-0.4-0.8,0-1.3c0.3-0.3,0.6-0.6,0.8-0.8c0.4-0.4,0.8-0.4,1.2,0c0.8,0.8,1.7,1.7,2.5,2.5C8.2,12.7,8.2,12.7,8.2,12.8z"/>
</svg>
